
<svg xmlns="http://www.w3.org/2000/svg" viewBox="0 0 24 24" width="24" height="24" fill="currentColor">
  <path d="M12 .5a11.5 11.5 0 0 0-3.64 22.42c.58.1.79-.25.79-.55v-2c-3.2.7-3.88-1.36-3.88-1.36-.52-1.33-1.28-1.69-1.28-1.69-1.05-.72.08-.7.08-.7 1.16.08 1.77 1.19 1.77 1.19 1.03 1.77 2.7 1.26 3.36.96.1-.75.4-1.26.73-1.55-2.55-.29-5.24-1.28-5.24-5.7 0-1.26.45-2.29 1.18-3.1-.12-.3-.51-1.47.11-3.06 0 0 .97-.31 3.18 1.18a11 11 0 0 1 5.8 0c2.2-1.49 3.17-1.18 3.17-1.18.63 1.59.24 2.76.12 3.06.74.81 1.18 1.84 1.18 3.1 0 4.43-2.7 5.4-5.27 5.69.41.36.78 1.05.78 2.13v3.16c0 .31.2.66.8.55A11.5 11.5 0 0 0 12 .5z"></path>
</svg>