<svg xmlns="http://www.w3.org/2000/svg" viewBox="0 0 880 580" font-family="ui-sans-serif, system-ui, -apple-system, Segoe UI, sans-serif">
  <rect x="1" y="1" width="878" height="578" rx="10" fill="#fafafa" stroke="#d4d4d8" stroke-width="1"></rect>

  <text x="32" y="40" fill="#18181b" font-size="16" font-weight="600">Color tokens → Obsidian CSS variables</text>
  <text x="32" y="62" fill="#52525b" font-size="12">The hex values are the mock palette only. Map every shipped color to the Obsidian variable in column 3.</text>

  <text x="32" y="100" fill="#a1a1aa" font-size="10.5" font-weight="600" letter-spacing="0.06em">SWATCH</text>
  <text x="120" y="100" fill="#a1a1aa" font-size="10.5" font-weight="600" letter-spacing="0.06em">ROLE</text>
  <text x="360" y="100" fill="#a1a1aa" font-size="10.5" font-weight="600" letter-spacing="0.06em">OBSIDIAN VARIABLE</text>
  <text x="680" y="100" fill="#a1a1aa" font-size="10.5" font-weight="600" letter-spacing="0.06em">MOCK HEX</text>
  <line x1="32" y1="108" x2="848" y2="108" stroke="#e4e4e7" stroke-width="1"></line>

  
  

  <rect x="32" y="120" width="60" height="28" rx="4" fill="#1a1a1d" stroke="#e4e4e7"></rect>
  <text x="120" y="138" fill="#18181b" font-size="13" font-weight="500">App background</text>
  <text x="360" y="138" fill="#18181b" font-size="12" font-family="ui-monospace, Menlo, Consolas, monospace">--background-primary</text>
  <text x="680" y="138" fill="#71717a" font-size="11.5" font-family="ui-monospace, Menlo, Consolas, monospace">#1a1a1d</text>
  <line x1="32" y1="158" x2="848" y2="158" stroke="#e4e4e7" stroke-width="1"></line>

  <rect x="32" y="162" width="60" height="28" rx="4" fill="#232328"></rect>
  <text x="120" y="180" fill="#18181b" font-size="13" font-weight="500">Surface / card</text>
  <text x="360" y="180" fill="#18181b" font-size="12" font-family="ui-monospace, Menlo, Consolas, monospace">--background-secondary</text>
  <text x="680" y="180" fill="#71717a" font-size="11.5" font-family="ui-monospace, Menlo, Consolas, monospace">#232328</text>
  <line x1="32" y1="200" x2="848" y2="200" stroke="#e4e4e7" stroke-width="1"></line>

  <rect x="32" y="204" width="60" height="28" rx="4" fill="#1d1d21"></rect>
  <text x="120" y="222" fill="#18181b" font-size="13" font-weight="500">Input background</text>
  <text x="360" y="222" fill="#18181b" font-size="12" font-family="ui-monospace, Menlo, Consolas, monospace">--background-modifier-form-field</text>
  <text x="680" y="222" fill="#71717a" font-size="11.5" font-family="ui-monospace, Menlo, Consolas, monospace">#1d1d21</text>
  <line x1="32" y1="242" x2="848" y2="242" stroke="#e4e4e7" stroke-width="1"></line>

  <rect x="32" y="246" width="60" height="28" rx="4" fill="#2c2c33"></rect>
  <text x="120" y="264" fill="#18181b" font-size="13" font-weight="500">Border (soft)</text>
  <text x="360" y="264" fill="#18181b" font-size="12" font-family="ui-monospace, Menlo, Consolas, monospace">--background-modifier-border</text>
  <text x="680" y="264" fill="#71717a" font-size="11.5" font-family="ui-monospace, Menlo, Consolas, monospace">#2c2c33</text>
  <line x1="32" y1="284" x2="848" y2="284" stroke="#e4e4e7" stroke-width="1"></line>

  <rect x="32" y="288" width="60" height="28" rx="4" fill="#e7e7ea" stroke="#d4d4d8"></rect>
  <text x="120" y="306" fill="#18181b" font-size="13" font-weight="500">Default text</text>
  <text x="360" y="306" fill="#18181b" font-size="12" font-family="ui-monospace, Menlo, Consolas, monospace">--text-normal</text>
  <text x="680" y="306" fill="#71717a" font-size="11.5" font-family="ui-monospace, Menlo, Consolas, monospace">#e7e7ea</text>
  <line x1="32" y1="326" x2="848" y2="326" stroke="#e4e4e7" stroke-width="1"></line>

  <rect x="32" y="330" width="60" height="28" rx="4" fill="#a0a0a8"></rect>
  <text x="120" y="348" fill="#18181b" font-size="13" font-weight="500">Muted text</text>
  <text x="360" y="348" fill="#18181b" font-size="12" font-family="ui-monospace, Menlo, Consolas, monospace">--text-muted</text>
  <text x="680" y="348" fill="#71717a" font-size="11.5" font-family="ui-monospace, Menlo, Consolas, monospace">#a0a0a8</text>
  <line x1="32" y1="368" x2="848" y2="368" stroke="#e4e4e7" stroke-width="1"></line>

  <rect x="32" y="372" width="60" height="28" rx="4" fill="#6e6e78"></rect>
  <text x="120" y="390" fill="#18181b" font-size="13" font-weight="500">Faint text</text>
  <text x="360" y="390" fill="#18181b" font-size="12" font-family="ui-monospace, Menlo, Consolas, monospace">--text-faint</text>
  <text x="680" y="390" fill="#71717a" font-size="11.5" font-family="ui-monospace, Menlo, Consolas, monospace">#6e6e78</text>
  <line x1="32" y1="410" x2="848" y2="410" stroke="#e4e4e7" stroke-width="1"></line>

  <rect x="32" y="414" width="60" height="28" rx="4" fill="#a78bfa"></rect>
  <text x="120" y="432" fill="#18181b" font-size="13" font-weight="500">Accent</text>
  <text x="360" y="432" fill="#18181b" font-size="12" font-family="ui-monospace, Menlo, Consolas, monospace">--interactive-accent</text>
  <text x="680" y="432" fill="#71717a" font-size="11.5" font-family="ui-monospace, Menlo, Consolas, monospace">#a78bfa</text>
  <line x1="32" y1="452" x2="848" y2="452" stroke="#e4e4e7" stroke-width="1"></line>

  <rect x="32" y="456" width="60" height="28" rx="4" fill="#4ade80"></rect>
  <text x="120" y="474" fill="#18181b" font-size="13" font-weight="500">Success</text>
  <text x="360" y="474" fill="#18181b" font-size="12" font-family="ui-monospace, Menlo, Consolas, monospace">--text-success</text>
  <text x="680" y="474" fill="#71717a" font-size="11.5" font-family="ui-monospace, Menlo, Consolas, monospace">#4ade80</text>
  <line x1="32" y1="494" x2="848" y2="494" stroke="#e4e4e7" stroke-width="1"></line>

  <rect x="32" y="498" width="60" height="28" rx="4" fill="#fbbf24"></rect>
  <text x="120" y="516" fill="#18181b" font-size="13" font-weight="500">Warning</text>
  <text x="360" y="516" fill="#18181b" font-size="12" font-family="ui-monospace, Menlo, Consolas, monospace">--text-warning</text>
  <text x="680" y="516" fill="#71717a" font-size="11.5" font-family="ui-monospace, Menlo, Consolas, monospace">#fbbf24</text>
  <line x1="32" y1="536" x2="848" y2="536" stroke="#e4e4e7" stroke-width="1"></line>

  <rect x="32" y="540" width="60" height="28" rx="4" fill="#f87171"></rect>
  <text x="120" y="558" fill="#18181b" font-size="13" font-weight="500">Error</text>
  <text x="360" y="558" fill="#18181b" font-size="12" font-family="ui-monospace, Menlo, Consolas, monospace">--text-error</text>
  <text x="680" y="558" fill="#71717a" font-size="11.5" font-family="ui-monospace, Menlo, Consolas, monospace">#f87171</text>
</svg>