<svg xmlns="http://www.w3.org/2000/svg" viewBox="0 0 880 540" font-family="ui-sans-serif, system-ui, -apple-system, Segoe UI, sans-serif">
  <rect x="1" y="1" width="878" height="538" rx="10" fill="#fafafa" stroke="#d4d4d8" stroke-width="1"></rect>

  <text x="32" y="40" fill="#18181b" font-size="16" font-weight="600">Search modal — anatomy</text>
  <text x="32" y="62" fill="#52525b" font-size="12">The modal is the most-used surface. Keep it keyboard-first; mode is meta, content is primary.</text>

  
  <g transform="translate(220, 90)">
    <rect x="0" y="0" width="440" height="380" rx="10" fill="#18181b" stroke="#2c2c33" stroke-width="1"></rect>

    
    <line x1="0" y1="49" x2="440" y2="49" stroke="#2c2c33" stroke-width="1"></line>
    <circle cx="22" cy="25" r="6" fill="none" stroke="#a1a1aa" stroke-width="1.5"></circle>
    <line x1="26" y1="29" x2="30" y2="33" stroke="#a1a1aa" stroke-width="1.5" stroke-linecap="round"></line>
    <text x="42" y="29" fill="#e4e4e7" font-size="14">prometheus alert rules</text>
    <rect x="225" y="13" width="100" height="22" rx="11" fill="#4c2c8a" opacity="0.5"></rect>
    <text x="275" y="28" fill="#ddd6fe" font-size="11" text-anchor="middle">intent detected</text>
    <rect x="395" y="14" width="32" height="22" rx="4" fill="#2c2c33" stroke="#45454e"></rect>
    <text x="411" y="29" fill="#a1a1aa" font-size="10.5" text-anchor="middle" font-family="ui-monospace, Menlo, Consolas, monospace">esc</text>

    
    <rect x="1" y="50" width="438" height="40" fill="#232328"></rect>
    <line x1="0" y1="90" x2="440" y2="90" stroke="#2c2c33" stroke-width="1"></line>
    
    <rect x="12" y="58" width="160" height="24" rx="5" fill="#1d1d21" stroke="#2c2c33"></rect>
    <rect x="116" y="60" width="54" height="20" rx="3" fill="#2a2a30" stroke="#45454e"></rect>
    <text x="36" y="73" fill="#a1a1aa" font-size="11" text-anchor="middle">Keyword</text>
    <text x="88" y="73" fill="#a1a1aa" font-size="11" text-anchor="middle">Semantic</text>
    <text x="143" y="73" fill="#e4e4e7" font-size="11" text-anchor="middle">Hybrid</text>
    
    <text x="180" y="74" fill="#71717a" font-size="11">in</text>
    <rect x="196" y="61" width="106" height="20" rx="10" fill="#1d1d21" stroke="#2c2c33"></rect>
    <text x="249" y="74" fill="#e4e4e7" font-size="11" text-anchor="middle">obsidian-mind</text>
    
    <text x="428" y="74" fill="#71717a" font-size="10.5" text-anchor="end" font-family="ui-monospace, Menlo, Consolas, monospace">12 results · 84 ms</text>

    
    <rect x="1" y="91" width="438" height="74" fill="#2a2138"></rect>
    <rect x="16" y="105" width="22" height="22" rx="4" fill="#27272a" stroke="#3f3f46"></rect>
    <text x="27" y="120" fill="#d4d4d8" font-size="10" text-anchor="middle" font-family="ui-monospace, Menlo, Consolas, monospace">01</text>
    <text x="48" y="115" fill="#e4e4e7" font-size="12" font-weight="500">OPNsense Prometheus exporter</text>
    <text x="48" y="130" fill="#71717a" font-size="10" font-family="ui-monospace, Menlo, Consolas, monospace">services/observability/opnsense.qmd</text>
    <text x="48" y="148" fill="#a1a1aa" font-size="11">os-prometheus plugin running on gateway…</text>
    <text x="425" y="115" fill="#a1a1aa" font-size="10" text-anchor="end" font-family="ui-monospace, Menlo, Consolas, monospace">92%</text>

    
    <rect x="1" y="166" width="438" height="68" fill="#18181b"></rect>
    <line x1="0" y1="165" x2="440" y2="165" stroke="#27272a"></line>
    <rect x="16" y="180" width="22" height="22" rx="4" fill="#27272a" stroke="#3f3f46"></rect>
    <text x="27" y="195" fill="#d4d4d8" font-size="10" text-anchor="middle" font-family="ui-monospace, Menlo, Consolas, monospace">02</text>
    <text x="48" y="190" fill="#e4e4e7" font-size="12" font-weight="500">Grafana Alloy — alerting pipeline</text>
    <text x="48" y="205" fill="#71717a" font-size="10" font-family="ui-monospace, Menlo, Consolas, monospace">services/observability/alloy.qmd</text>
    <text x="425" y="190" fill="#a1a1aa" font-size="10" text-anchor="end" font-family="ui-monospace, Menlo, Consolas, monospace">81%</text>

    
    <rect x="1" y="234" width="438" height="68" fill="#18181b"></rect>
    <line x1="0" y1="234" x2="440" y2="234" stroke="#27272a"></line>
    <rect x="16" y="248" width="22" height="22" rx="4" fill="#27272a" stroke="#3f3f46"></rect>
    <text x="27" y="263" fill="#d4d4d8" font-size="10" text-anchor="middle" font-family="ui-monospace, Menlo, Consolas, monospace">03</text>
    <text x="48" y="258" fill="#e4e4e7" font-size="12" font-weight="500">Homelab alerting playbook</text>
    <text x="48" y="273" fill="#71717a" font-size="10" font-family="ui-monospace, Menlo, Consolas, monospace">services/runbooks/alerts.qmd</text>
    <text x="425" y="258" fill="#a1a1aa" font-size="10" text-anchor="end" font-family="ui-monospace, Menlo, Consolas, monospace">74%</text>

    
    <rect x="1" y="340" width="438" height="40" fill="#232328"></rect>
    <line x1="0" y1="340" x2="440" y2="340" stroke="#2c2c33"></line>
    <text x="16" y="364" fill="#71717a" font-size="10.5" font-family="ui-monospace, Menlo, Consolas, monospace">↑↓ navigate · ↵ open · ⌘↵ new tab · ⌘. filters</text>
    <text x="425" y="364" fill="#71717a" font-size="10.5" text-anchor="end" font-family="ui-monospace, Menlo, Consolas, monospace">qmd · hybrid</text>
  </g>

  
  <line x1="220" y1="115" x2="100" y2="115" stroke="#a78bfa" stroke-width="1" fill="none"></line>
  <text x="32" y="105" fill="#18181b" font-size="11.5" font-weight="500">Search input</text>
  <text x="32" y="119" fill="#71717a" font-size="10.5" font-family="ui-monospace, Menlo, Consolas, monospace">15px · debounce 120 ms</text>

  <line x1="510" y1="115" x2="780" y2="115" stroke="#a78bfa" stroke-width="1" fill="none"></line>
  <text x="848" y="105" fill="#18181b" font-size="11.5" font-weight="500" text-anchor="end">Intent pill (auto)</text>
  <text x="848" y="119" fill="#71717a" font-size="10.5" font-family="ui-monospace, Menlo, Consolas, monospace" text-anchor="end">click → reveal panel</text>

  <line x1="280" y1="160" x2="100" y2="200" stroke="#a78bfa" stroke-width="1" fill="none"></line>
  <text x="32" y="190" fill="#18181b" font-size="11.5" font-weight="500">Mode selector</text>
  <text x="32" y="204" fill="#71717a" font-size="10.5" font-family="ui-monospace, Menlo, Consolas, monospace">compact segmented, not pills</text>

  <line x1="470" y1="160" x2="780" y2="200" stroke="#a78bfa" stroke-width="1" fill="none"></line>
  <text x="848" y="190" fill="#18181b" font-size="11.5" font-weight="500" text-anchor="end">Collection scope</text>
  <text x="848" y="204" fill="#71717a" font-size="10.5" font-family="ui-monospace, Menlo, Consolas, monospace" text-anchor="end">chip → picker</text>

  <line x1="220" y1="220" x2="100" y2="290" stroke="#a78bfa" stroke-width="1" fill="none"></line>
  <text x="32" y="280" fill="#18181b" font-size="11.5" font-weight="500">Focused result</text>
  <text x="32" y="294" fill="#71717a" font-size="10.5" font-family="ui-monospace, Menlo, Consolas, monospace">--interactive-accent @ 16%</text>

  <line x1="660" y1="200" x2="780" y2="290" stroke="#a78bfa" stroke-width="1" fill="none"></line>
  <text x="848" y="280" fill="#18181b" font-size="11.5" font-weight="500" text-anchor="end">Per-result score</text>
  <text x="848" y="294" fill="#71717a" font-size="10.5" font-family="ui-monospace, Menlo, Consolas, monospace" text-anchor="end">% + 5-bar indicator</text>

  <line x1="320" y1="450" x2="100" y2="490" stroke="#a78bfa" stroke-width="1" fill="none"></line>
  <text x="32" y="480" fill="#18181b" font-size="11.5" font-weight="500">Keyboard hints</text>
  <text x="32" y="494" fill="#71717a" font-size="10.5" font-family="ui-monospace, Menlo, Consolas, monospace">always visible · power-user signal</text>

  <line x1="630" y1="160" x2="780" y2="450" stroke="#a78bfa" stroke-width="1" fill="none"></line>
  <text x="848" y="480" fill="#18181b" font-size="11.5" font-weight="500" text-anchor="end">Live counters</text>
  <text x="848" y="494" fill="#71717a" font-size="10.5" font-family="ui-monospace, Menlo, Consolas, monospace" text-anchor="end">n results · latency</text>
</svg>